<svg xmlns="http://www.w3.org/2000/svg" viewBox="0 0 512 512">
  <defs>
    <linearGradient id="rainbow" x1="0%" y1="0%" x2="100%" y2="0%">
      <stop offset="0%" style="stop-color:#ff9aa2" />
      <stop offset="20%" style="stop-color:#ffb7b2" />
      <stop offset="40%" style="stop-color:#ffdac1" />
      <stop offset="60%" style="stop-color:#e2f0cb" />
      <stop offset="80%" style="stop-color:#b5ead7" />
      <stop offset="100%" style="stop-color:#c7ceea" />
    </linearGradient>
  </defs>
  
  <!-- Body -->
  <path fill="#f8f8ff" d="M390.4 280c-5.6-24-19.2-46.4-38.4-62.4-11.2-9.6-24-16-37.6-19.2 5.6-17.6 9.6-36.8 9.6-57.6 0-4.8-0.8-9.6-1.6-14.4 14.4-11.2 24-28.8 24-48 0-33.6-27.2-60.8-60.8-60.8-20.8 0-39.2 10.4-50.4 26.4-11.2-3.2-22.4-4.8-33.6-4.8-49.6 0-94.4 28-114.4 72-28 5.6-48.8 30.4-48.8 59.2 0 19.2 8.8 36.8 23.2 48-0.8 4.8-1.6 9.6-1.6 14.4 0 20.8 4 40 9.6 57.6-13.6 3.2-26.4 9.6-37.6 19.2-19.2 16-32.8 38.4-38.4 62.4-1.6 5.6 3.2 11.2 8.8 11.2h387.2c5.6 0 10.4-5.6 8.8-11.2z"/>
  
  <!-- Ears -->
  <path fill="#ffcae5" d="M324.8 107.2c-3.2-26.4-25.6-46.4-52-46.4-4.8 0-9.6 0.8-14.4 2.4-5.6 1.6-8.8 7.2-7.2 12.8 1.6 5.6 7.2 8.8 12.8 7.2 2.4-0.8 5.6-0.8 8.8-0.8 16 0 30.4 12 32 28 0.8 5.6 4.8 9.6 10.4 9.6 0.8 0 1.6 0 1.6 0 5.6-0.8 9.6-6.4 8-12z"/>
  <path fill="#ffcae5" d="M181.6 112.8c1.6-16 16-28 32-28 3.2 0 6.4 0.8 8.8 0.8 5.6 1.6 11.2-1.6 12.8-7.2 1.6-5.6-1.6-11.2-7.2-12.8-4.8-1.6-9.6-2.4-14.4-2.4-26.4 0-48.8 20-52 46.4-0.8 5.6 3.2 11.2 8.8 12.8 0.8 0 1.6 0 1.6 0 5.6 0 9.6-4 10.4-9.6z"/>
  
  <!-- Eyes -->
  <circle fill="#444" cx="196" cy="176" r="12"/>
  <circle fill="#444" cx="316" cy="176" r="12"/>
  <circle fill="#fff" cx="200" cy="172" r="4"/>
  <circle fill="#fff" cx="320" cy="172" r="4"/>
  
  <!-- Horn -->
  <path fill="url(#rainbow)" d="M285.6 39.2c-3.2-4.8-9.6-6.4-14.4-3.2-4.8 3.2-5.6 9.6-3.2 14.4 0.8 1.6 1.6 3.2 2.4 4.8 14.4 28.8 23.2 60 26.4 92-0.8 0-1.6 0-2.4 0-5.6 0-10.4 4.8-10.4 10.4s4.8 10.4 10.4 10.4c1.6 0 3.2 0 4.8 0 0 0 0.8 0 0.8 0 4.8 0 8.8-3.2 10.4-7.2 0-0.8 0-1.6 0-2.4-3.2-33.6-12.8-66.4-28-96.8-0.8-1.6-1.6-2.4-2.4-4 0-0.8 0-0.8 0-1.6z"/>
  
  <!-- Mane -->
  <path fill="#ffb0ed" d="M342.4 160c0-48-39.2-87.2-87.2-87.2-2.4 0-4.8 0-7.2 0.8 9.6 11.2 15.2 25.6 15.2 40.8 0 35.2-28.8 64-64 64-28.8 0-52.8-19.2-61.6-44.8-2.4 8-3.2 16.8-3.2 26.4 0 48 39.2 87.2 87.2 87.2 26.4 0 50.4-12 66.4-30.4 15.2-17.6 24-40 24-64z"/>
  
  <!-- Hooves -->
  <path fill="#444" d="M133.6 291.2c0 5.6-4.8 10.4-10.4 10.4s-10.4-4.8-10.4-10.4 4.8-10.4 10.4-10.4 10.4 4.8 10.4 10.4z"/>
  <path fill="#444" d="M234.4 291.2c0 5.6-4.8 10.4-10.4 10.4s-10.4-4.8-10.4-10.4 4.8-10.4 10.4-10.4 10.4 4.8 10.4 10.4z"/>
  <path fill="#444" d="M288 291.2c0 5.6-4.8 10.4-10.4 10.4s-10.4-4.8-10.4-10.4 4.8-10.4 10.4-10.4c5.6 0 10.4 4.8 10.4 10.4z"/>
  <path fill="#444" d="M389.6 291.2c0 5.6-4.8 10.4-10.4 10.4s-10.4-4.8-10.4-10.4 4.8-10.4 10.4-10.4c5.6 0 10.4 4.8 10.4 10.4z"/>
</svg>
